<svg xmlns="http://www.w3.org/2000/svg" viewBox="0 0 37 16" shape-rendering="crispEdges" fill="currentColor" role="img" aria-label="NAX">
  <rect x="1" y="1" width="1" height="1"/>
  <rect x="2" y="1" width="1" height="1"/>
  <rect x="3" y="1" width="1" height="1"/>
  <rect x="4" y="1" width="1" height="1"/>
  <rect x="5" y="1" width="1" height="1"/>
  <rect x="6" y="1" width="1" height="1"/>
  <rect x="7" y="1" width="1" height="1"/>
  <rect x="8" y="1" width="1" height="1"/>
  <rect x="9" y="1" width="1" height="1"/>
  <rect x="10" y="1" width="1" height="1"/>
  <rect x="11" y="1" width="1" height="1"/>
  <rect x="12" y="1" width="1" height="1"/>
  <rect x="13" y="1" width="1" height="1"/>
  <rect x="14" y="1" width="1" height="1"/>
  <rect x="15" y="1" width="1" height="1"/>
  <rect x="16" y="1" width="1" height="1"/>
  <rect x="17" y="1" width="1" height="1"/>
  <rect x="18" y="1" width="1" height="1"/>
  <rect x="19" y="1" width="1" height="1"/>
  <rect x="20" y="1" width="1" height="1"/>
  <rect x="21" y="1" width="1" height="1"/>
  <rect x="22" y="1" width="1" height="1"/>
  <rect x="23" y="1" width="1" height="1"/>
  <rect x="24" y="1" width="1" height="1"/>
  <rect x="25" y="1" width="1" height="1"/>
  <rect x="26" y="1" width="1" height="1"/>
  <rect x="27" y="1" width="1" height="1"/>
  <rect x="28" y="1" width="1" height="1"/>
  <rect x="29" y="1" width="1" height="1"/>
  <rect x="30" y="1" width="1" height="1"/>
  <rect x="31" y="1" width="1" height="1"/>
  <rect x="32" y="1" width="1" height="1"/>
  <rect x="33" y="1" width="1" height="1"/>
  <rect x="34" y="1" width="1" height="1"/>
  <rect x="35" y="1" width="1" height="1"/>
  <rect x="1" y="2" width="1" height="1"/>
  <rect x="1" y="3" width="1" height="1"/>
  <rect x="1" y="4" width="1" height="1"/>
  <rect x="4" y="4" width="1" height="1"/>
  <rect x="5" y="4" width="1" height="1"/>
  <rect x="6" y="4" width="1" height="1"/>
  <rect x="7" y="4" width="1" height="1"/>
  <rect x="8" y="4" width="1" height="1"/>
  <rect x="16" y="4" width="1" height="1"/>
  <rect x="17" y="4" width="1" height="1"/>
  <rect x="18" y="4" width="1" height="1"/>
  <rect x="25" y="4" width="1" height="1"/>
  <rect x="26" y="4" width="1" height="1"/>
  <rect x="27" y="4" width="1" height="1"/>
  <rect x="32" y="4" width="1" height="1"/>
  <rect x="33" y="4" width="1" height="1"/>
  <rect x="34" y="4" width="1" height="1"/>
  <rect x="35" y="4" width="1" height="1"/>
  <rect x="1" y="5" width="1" height="1"/>
  <rect x="6" y="5" width="1" height="1"/>
  <rect x="7" y="5" width="1" height="1"/>
  <rect x="8" y="5" width="1" height="1"/>
  <rect x="16" y="5" width="1" height="1"/>
  <rect x="17" y="5" width="1" height="1"/>
  <rect x="18" y="5" width="1" height="1"/>
  <rect x="19" y="5" width="1" height="1"/>
  <rect x="26" y="5" width="1" height="1"/>
  <rect x="27" y="5" width="1" height="1"/>
  <rect x="28" y="5" width="1" height="1"/>
  <rect x="31" y="5" width="1" height="1"/>
  <rect x="35" y="5" width="1" height="1"/>
  <rect x="1" y="6" width="1" height="1"/>
  <rect x="6" y="6" width="1" height="1"/>
  <rect x="7" y="6" width="1" height="1"/>
  <rect x="8" y="6" width="1" height="1"/>
  <rect x="15" y="6" width="1" height="1"/>
  <rect x="17" y="6" width="1" height="1"/>
  <rect x="18" y="6" width="1" height="1"/>
  <rect x="19" y="6" width="1" height="1"/>
  <rect x="26" y="6" width="1" height="1"/>
  <rect x="27" y="6" width="1" height="1"/>
  <rect x="28" y="6" width="1" height="1"/>
  <rect x="30" y="6" width="1" height="1"/>
  <rect x="35" y="6" width="1" height="1"/>
  <rect x="1" y="7" width="1" height="1"/>
  <rect x="7" y="7" width="1" height="1"/>
  <rect x="8" y="7" width="1" height="1"/>
  <rect x="9" y="7" width="1" height="1"/>
  <rect x="14" y="7" width="1" height="1"/>
  <rect x="18" y="7" width="1" height="1"/>
  <rect x="19" y="7" width="1" height="1"/>
  <rect x="20" y="7" width="1" height="1"/>
  <rect x="27" y="7" width="1" height="1"/>
  <rect x="28" y="7" width="1" height="1"/>
  <rect x="29" y="7" width="1" height="1"/>
  <rect x="35" y="7" width="1" height="1"/>
  <rect x="1" y="8" width="1" height="1"/>
  <rect x="6" y="8" width="1" height="1"/>
  <rect x="8" y="8" width="1" height="1"/>
  <rect x="9" y="8" width="1" height="1"/>
  <rect x="10" y="8" width="1" height="1"/>
  <rect x="13" y="8" width="1" height="1"/>
  <rect x="14" y="8" width="1" height="1"/>
  <rect x="15" y="8" width="1" height="1"/>
  <rect x="16" y="8" width="1" height="1"/>
  <rect x="17" y="8" width="1" height="1"/>
  <rect x="18" y="8" width="1" height="1"/>
  <rect x="19" y="8" width="1" height="1"/>
  <rect x="20" y="8" width="1" height="1"/>
  <rect x="21" y="8" width="1" height="1"/>
  <rect x="28" y="8" width="1" height="1"/>
  <rect x="29" y="8" width="1" height="1"/>
  <rect x="30" y="8" width="1" height="1"/>
  <rect x="35" y="8" width="1" height="1"/>
  <rect x="1" y="9" width="1" height="1"/>
  <rect x="6" y="9" width="1" height="1"/>
  <rect x="9" y="9" width="1" height="1"/>
  <rect x="10" y="9" width="1" height="1"/>
  <rect x="11" y="9" width="1" height="1"/>
  <rect x="13" y="9" width="1" height="1"/>
  <rect x="20" y="9" width="1" height="1"/>
  <rect x="21" y="9" width="1" height="1"/>
  <rect x="22" y="9" width="1" height="1"/>
  <rect x="28" y="9" width="1" height="1"/>
  <rect x="29" y="9" width="1" height="1"/>
  <rect x="30" y="9" width="1" height="1"/>
  <rect x="31" y="9" width="1" height="1"/>
  <rect x="35" y="9" width="1" height="1"/>
  <rect x="1" y="10" width="1" height="1"/>
  <rect x="5" y="10" width="1" height="1"/>
  <rect x="9" y="10" width="1" height="1"/>
  <rect x="10" y="10" width="1" height="1"/>
  <rect x="11" y="10" width="1" height="1"/>
  <rect x="12" y="10" width="1" height="1"/>
  <rect x="20" y="10" width="1" height="1"/>
  <rect x="21" y="10" width="1" height="1"/>
  <rect x="22" y="10" width="1" height="1"/>
  <rect x="27" y="10" width="1" height="1"/>
  <rect x="29" y="10" width="1" height="1"/>
  <rect x="30" y="10" width="1" height="1"/>
  <rect x="31" y="10" width="1" height="1"/>
  <rect x="35" y="10" width="1" height="1"/>
  <rect x="1" y="11" width="1" height="1"/>
  <rect x="2" y="11" width="1" height="1"/>
  <rect x="3" y="11" width="1" height="1"/>
  <rect x="4" y="11" width="1" height="1"/>
  <rect x="10" y="11" width="1" height="1"/>
  <rect x="11" y="11" width="1" height="1"/>
  <rect x="12" y="11" width="1" height="1"/>
  <rect x="21" y="11" width="1" height="1"/>
  <rect x="22" y="11" width="1" height="1"/>
  <rect x="23" y="11" width="1" height="1"/>
  <rect x="24" y="11" width="1" height="1"/>
  <rect x="25" y="11" width="1" height="1"/>
  <rect x="26" y="11" width="1" height="1"/>
  <rect x="30" y="11" width="1" height="1"/>
  <rect x="31" y="11" width="1" height="1"/>
  <rect x="32" y="11" width="1" height="1"/>
  <rect x="35" y="11" width="1" height="1"/>
  <rect x="35" y="12" width="1" height="1"/>
  <rect x="35" y="13" width="1" height="1"/>
  <rect x="1" y="14" width="1" height="1"/>
  <rect x="2" y="14" width="1" height="1"/>
  <rect x="3" y="14" width="1" height="1"/>
  <rect x="4" y="14" width="1" height="1"/>
  <rect x="5" y="14" width="1" height="1"/>
  <rect x="6" y="14" width="1" height="1"/>
  <rect x="7" y="14" width="1" height="1"/>
  <rect x="8" y="14" width="1" height="1"/>
  <rect x="9" y="14" width="1" height="1"/>
  <rect x="10" y="14" width="1" height="1"/>
  <rect x="11" y="14" width="1" height="1"/>
  <rect x="12" y="14" width="1" height="1"/>
  <rect x="13" y="14" width="1" height="1"/>
  <rect x="14" y="14" width="1" height="1"/>
  <rect x="15" y="14" width="1" height="1"/>
  <rect x="16" y="14" width="1" height="1"/>
  <rect x="17" y="14" width="1" height="1"/>
  <rect x="18" y="14" width="1" height="1"/>
  <rect x="19" y="14" width="1" height="1"/>
  <rect x="20" y="14" width="1" height="1"/>
  <rect x="21" y="14" width="1" height="1"/>
  <rect x="22" y="14" width="1" height="1"/>
  <rect x="23" y="14" width="1" height="1"/>
  <rect x="24" y="14" width="1" height="1"/>
  <rect x="25" y="14" width="1" height="1"/>
  <rect x="26" y="14" width="1" height="1"/>
  <rect x="27" y="14" width="1" height="1"/>
  <rect x="28" y="14" width="1" height="1"/>
  <rect x="29" y="14" width="1" height="1"/>
  <rect x="30" y="14" width="1" height="1"/>
  <rect x="31" y="14" width="1" height="1"/>
  <rect x="32" y="14" width="1" height="1"/>
  <rect x="33" y="14" width="1" height="1"/>
  <rect x="34" y="14" width="1" height="1"/>
  <rect x="35" y="14" width="1" height="1"/>
</svg>
